<?xml version="1.0" encoding="UTF-8" standalone="no"?>
<!-- Created with Inkscape (http://www.inkscape.org/) -->

<svg
   version="1.1"
   id="svg9"
   width="211.2"
   height="160.8"
   viewBox="0 0 211.2 160.8"
   sodipodi:docname="mo-black-logo-only.svg"
   inkscape:version="1.2.1 (9c6d41e410, 2022-07-14)"
   xmlns:inkscape="http://www.inkscape.org/namespaces/inkscape"
   xmlns:sodipodi="http://sodipodi.sourceforge.net/DTD/sodipodi-0.dtd"
   xmlns="http://www.w3.org/2000/svg"
   xmlns:svg="http://www.w3.org/2000/svg">
  <defs
     id="defs13" />
  <sodipodi:namedview
     id="namedview11"
     pagecolor="#ffffff"
     bordercolor="#000000"
     borderopacity="0.25"
     inkscape:showpageshadow="2"
     inkscape:pageopacity="0.0"
     inkscape:pagecheckerboard="0"
     inkscape:deskcolor="#d1d1d1"
     showgrid="true"
     inkscape:zoom="3.5905017"
     inkscape:cx="28.408286"
     inkscape:cy="91.491392"
     inkscape:window-width="2994"
     inkscape:window-height="1891"
     inkscape:window-x="69"
     inkscape:window-y="-9"
     inkscape:window-maximized="1"
     inkscape:current-layer="g15">
    <inkscape:grid
       type="xygrid"
       id="grid322" />
  </sodipodi:namedview>
  <g
     inkscape:groupmode="layer"
     inkscape:label="Image"
     id="g15">
    <rect
       style="display:none;fill:#d35f5f"
       id="rect248"
       width="211.90546"
       height="161.48929"
       x="0"
       y="-0.78775263"
       sodipodi:insensitive="true" />
    <path
       id="rect230"
       style="display:inline;fill:#000000"
       d="M 102.63672 15.662109 L 94.496094 34.945312 C 90.019284 45.551378 85.221131 56.803991 83.833984 59.951172 C 82.446848 63.098351 81.3125 65.837619 81.3125 66.037109 C 81.3125 66.236598 80.371193 68.550486 79.220703 71.179688 C 70.702987 90.645132 70.940418 89.446981 74.224609 96.171875 C 75.745447 99.286024 77.275539 101.65098 77.625 101.42773 C 77.974462 101.20449 83.185282 89.375886 89.203125 75.142578 L 100.14453 49.263672 L 100.37305 83.210938 L 100.60547 117.15625 L 105.85742 117.15625 L 111.10938 117.15625 L 110.88281 66.677734 L 110.65625 16.201172 L 106.64648 15.931641 L 102.63672 15.662109 z M 123.57812 18.464844 C 123.45774 18.464594 123.35933 21.010611 123.36133 24.123047 L 123.36523 29.783203 L 127.17383 31.400391 C 139.66025 36.707123 151.01512 50.264044 155.39648 65.09375 C 157.62599 72.640406 157.64973 87.712854 155.44141 94.519531 C 151.09001 107.93131 144.45356 117.27043 134.26758 124.3125 C 124.99106 130.72577 117.54361 133.00195 105.83984 133.00195 C 94.136076 133.00195 86.686603 130.72577 77.410156 124.3125 C 62.835397 114.23625 54.644224 98.487384 54.615234 80.488281 C 54.601876 72.201738 56.174881 62.830078 57.580078 62.830078 C 57.891874 62.830078 59.806933 66.294432 61.837891 70.527344 C 63.868851 74.760253 65.85999 78.224609 66.259766 78.224609 C 66.659551 78.224609 68.040956 75.568949 69.330078 72.324219 L 71.673828 66.423828 L 64.828125 52.294922 L 57.980469 38.162109 L 55.310547 42.574219 C 48.418756 53.954997 45.767189 61.09094 44.431641 71.855469 C 40.649843 102.33679 58.32512 131.61902 86.195312 141.04492 C 94.0428 143.69901 98.188763 144.24616 108.0293 143.92188 C 115.36635 143.68009 119.33584 143.04772 124.67188 141.26953 C 147.74002 133.58229 164.15526 113.12494 167.24609 88.212891 C 170.36193 63.099172 158.61534 37.665593 138.18555 25.289062 C 133.87001 22.674668 124.86851 18.469226 123.57812 18.464844 z " />
  </g>
</svg>
